<svg width="33" height="32" viewBox="0 0 33 32" fill="none" xmlns="http://www.w3.org/2000/svg">
<path d="M15.2539 1.07047C15.7079 -0.0483378 17.2921 -0.0483412 17.7461 1.07046L21.2627 9.73534C21.4555 10.2104 21.9015 10.5345 22.4129 10.571L31.7403 11.2379C32.9447 11.324 33.4342 12.8306 32.5105 13.6081L25.3564 19.6302C24.9642 19.9603 24.7938 20.4847 24.917 20.9823L27.1652 30.0593C27.4554 31.2313 26.1739 32.1625 25.1489 31.5242L17.2109 26.5812C16.7757 26.3102 16.2243 26.3102 15.7891 26.5812L7.85109 31.5242C6.82614 32.1625 5.54455 31.2313 5.83483 30.0593L8.08297 20.9823C8.20622 20.4847 8.03583 19.9603 7.64363 19.6302L0.489515 13.6081C-0.434222 12.8306 0.0552957 11.324 1.25965 11.2379L10.5871 10.571C11.0985 10.5345 11.5445 10.2104 11.7373 9.73534L15.2539 1.07047Z" fill="#E6E6E6"/>
</svg>
