<svg width="16" height="16" viewBox="0 0 16 16" fill="none" xmlns="http://www.w3.org/2000/svg">
<path d="M15.7499 8.26667C15.7499 4.30001 12.2501 1.03334 8 1.03334C3.71875 1.03334 0.25 4.30001 0.25 8.26667C0.25 12.2625 3.71875 15.5 8 15.5C12.2501 15.5 15.7499 12.2625 15.7499 8.26667ZM8 9.72501C8.78125 9.72501 9.4375 10.3375 9.4375 11.0667C9.4375 11.825 8.78125 12.4083 8 12.4083C7.1875 12.4083 6.5625 11.825 6.5625 11.0667C6.5625 10.3375 7.1875 9.72501 8 9.72501ZM6.62501 4.91251C6.59375 4.70834 6.78125 4.53334 7 4.53334H8.96875C9.1875 4.53334 9.375 4.70834 9.34375 4.91251L9.12501 8.87918C9.09375 9.08333 8.9375 9.20001 8.75 9.20001H7.21875C7.03125 9.20001 6.87499 9.08333 6.84375 8.87918L6.62501 4.91251Z" fill="#999999"/>
</svg>
