<svg width="434" height="242" viewBox="0 0 434 242" fill="none" xmlns="http://www.w3.org/2000/svg">
<path d="M118 124.498L172.587 122.827" stroke="#FCAF5E" stroke-width="3" stroke-linecap="round" stroke-linejoin="round"/>
<path d="M82.8065 174.794L91.2896 141.893" stroke="#FCAF5E" stroke-width="3" stroke-linecap="round" stroke-linejoin="round"/>
<path d="M46.2507 139.177L74.6337 129.128" stroke="#FCAF5E" stroke-width="3" stroke-linecap="round" stroke-linejoin="round"/>
<path d="M82.0001 60.4091L189.993 106.053" stroke="#FCAF5E" stroke-width="3" stroke-linecap="round" stroke-linejoin="round"/>
<path d="M256.202 141.993L347.56 180.606" stroke="#FCAF5E" stroke-width="3" stroke-linecap="round" stroke-linejoin="round"/>
<path d="M183 60.4429L200.751 91.1816" stroke="#FCAF5E" stroke-width="3" stroke-linecap="round" stroke-linejoin="round"/>
<path d="M266.75 60L244.497 87.6545" stroke="#FCAF5E" stroke-width="3" stroke-linecap="round" stroke-linejoin="round"/>
<path d="M259 121.498L313.587 119.827" stroke="#FCAF5E" stroke-width="3" stroke-linecap="round" stroke-linejoin="round"/>
<path d="M174.492 173.035L199.205 143" stroke="#FCAF5E" stroke-width="3" stroke-linecap="round" stroke-linejoin="round"/>
<path d="M255.1 200.606L236 152.06" stroke="#FCAF5E" stroke-width="3" stroke-linecap="round" stroke-linejoin="round"/>
<path d="M97 125C97 60.3827 149.383 7.99999 214 7.99999C278.617 8 331 60.3827 331 125" stroke="#FFE2A0" stroke-miterlimit="16" stroke-dasharray="3 3"/>
<circle cx="217" cy="121" r="57" fill="url(#paint0_radial_1_518)"/>
<circle cx="217" cy="121" r="47" fill="#FFE2A0" stroke="white" stroke-width="2"/>
<circle cx="285.866" cy="38.8661" r="28" transform="rotate(-117.992 285.866 38.8661)" fill="#FFE2A0"/>
<circle cx="96.5633" cy="124.563" r="23.5005" transform="rotate(72.1855 96.5633 124.563)" fill="#FECD66"/>
<circle cx="356.563" cy="184.563" r="23.5005" transform="rotate(72.1855 356.563 184.563)" fill="#FECD66"/>
<circle cx="54.3787" cy="48.3788" r="34.4826" transform="rotate(72.1855 54.3787 48.3788)" fill="#FCAF5E"/>
<circle cx="260.514" cy="211.514" r="19.4866" transform="rotate(72.1855 260.514 211.514)" fill="#FFE2A0"/>
<circle cx="163.513" cy="183.513" r="14.7164" transform="rotate(72.1855 163.513 183.513)" fill="#FECD66"/>
<circle cx="327.279" cy="117.279" r="25.6594" transform="rotate(72.1855 327.279 117.279)" fill="#FECD66"/>
<circle cx="178.913" cy="51.9126" r="11.0594" transform="rotate(72.1855 178.913 51.9126)" fill="#FECD66"/>
<circle cx="40.9127" cy="141.913" r="11.0594" transform="rotate(72.1855 40.9127 141.913)" fill="#FECD66"/>
<circle cx="81.9127" cy="178.913" r="11.0594" transform="rotate(72.1855 81.9127 178.913)" fill="#FECD66"/>
<path d="M216.399 96.2656C216.22 96.3711 216.009 96.5609 215.956 96.6769C215.893 96.7929 215.84 97.5418 215.84 98.4277V99.9781L216.146 100.273C216.494 100.621 216.873 100.748 217.274 100.653C217.432 100.611 217.686 100.442 217.854 100.273L218.16 99.9781V98.4066C218.16 96.6875 218.107 96.5082 217.527 96.2128C217.116 96.0019 216.8 96.0125 216.399 96.2656Z" fill="#FE8E4E"/>
<path d="M200.568 102.752C200.136 102.942 199.872 103.522 199.967 104.049C200.051 104.482 201.612 106.169 202.203 106.443C202.962 106.802 203.827 106.296 203.838 105.473C203.848 104.904 203.774 104.798 202.635 103.67C201.549 102.594 201.222 102.457 200.568 102.752Z" fill="#FE8E4E"/>
<path d="M231.28 103.775C230.078 104.956 229.941 105.23 230.226 105.895C230.426 106.391 230.943 106.665 231.502 106.559C231.787 106.507 232.103 106.275 232.736 105.673C233.854 104.608 234.012 104.366 234.012 103.775C234.012 103.374 233.959 103.248 233.685 102.995C233.411 102.762 233.242 102.699 232.852 102.699C232.377 102.699 232.346 102.72 231.28 103.775Z" fill="#FE8E4E"/>
<path d="M215.249 102.91C212.444 103.205 209.48 104.323 207.191 105.948C205.926 106.844 204.07 108.69 203.194 109.924C202.435 111 201.317 113.214 200.916 114.438C200.389 116.03 200.22 117.085 200.157 119.121C200.083 121.346 200.23 122.422 200.832 124.162C201.654 126.514 202.762 128.307 205.63 131.872C206.706 133.211 207.719 134.519 207.898 134.772C208.278 135.331 208.879 136.491 208.879 136.681C208.879 136.755 208.668 136.955 208.404 137.114C207.402 137.757 206.875 138.717 206.875 139.93C206.875 141.037 207.107 141.638 207.824 142.366C208.594 143.157 209.269 143.41 210.556 143.41H211.495L211.389 143.853C211.263 144.423 211.357 145.319 211.611 145.899C211.906 146.543 212.613 147.26 213.298 147.597L213.889 147.893H217H220.111L220.702 147.597C221.388 147.26 222.094 146.543 222.389 145.899C222.643 145.319 222.738 144.423 222.611 143.853L222.505 143.41H223.444C224.731 143.41 225.406 143.157 226.186 142.366C226.577 141.965 226.83 141.596 226.946 141.248C227.146 140.668 227.178 139.55 227.02 138.959C226.84 138.348 226.271 137.588 225.68 137.188C225.374 136.987 225.132 136.755 225.121 136.681C225.121 136.502 225.712 135.342 226.102 134.772C226.281 134.519 227.294 133.211 228.37 131.882C230.5 129.214 231.523 127.748 232.293 126.219C233.422 123.962 233.875 122.127 233.875 119.732C233.875 118.013 233.759 117.011 233.4 115.566C231.365 107.466 223.56 102.035 215.249 102.91ZM219.363 105.399C223.803 106.053 227.969 109.133 230.057 113.309C230.954 115.081 231.555 117.644 231.555 119.627C231.555 122.928 230.395 125.575 227.283 129.414C224.383 133 223.455 134.371 222.959 135.785L222.706 136.502L220.175 136.555L217.643 136.607L217.327 136.913C217.053 137.177 217 137.304 217 137.746C217 138.168 217.053 138.305 217.306 138.569L217.612 138.875H220.607C222.326 138.875 223.761 138.917 223.982 138.98C224.805 139.212 225.058 140.067 224.499 140.689L224.193 141.037H217H209.807L209.501 140.689C208.942 140.067 209.195 139.212 210.018 138.98C210.229 138.928 211.231 138.875 212.233 138.875C213.288 138.875 214.142 138.833 214.268 138.77C214.732 138.516 214.943 137.567 214.616 137.103C214.332 136.692 214.036 136.607 212.644 136.555L211.294 136.502L211.062 135.816C210.598 134.445 209.617 133 206.717 129.414C206.021 128.56 205.166 127.432 204.829 126.915C203.975 125.618 203.12 123.804 202.793 122.57C202.54 121.631 202.509 121.336 202.509 119.68C202.498 117.602 202.625 116.8 203.257 114.997C205.166 109.513 210.176 105.642 215.893 105.252C217.2 105.157 218.023 105.199 219.363 105.399ZM219.563 143.505C220.565 143.885 220.48 145.224 219.447 145.52C218.941 145.657 215.059 145.657 214.553 145.52C214.047 145.372 213.73 144.971 213.73 144.475C213.741 144.032 213.889 143.79 214.321 143.568C214.564 143.442 215.08 143.41 216.968 143.41C218.255 143.41 219.426 143.452 219.563 143.505Z" fill="#FE8E4E"/>
<path d="M214.901 107.614C209.944 108.447 205.958 112.318 204.934 117.307C204.502 119.427 204.629 120.492 205.335 120.787C205.799 120.987 205.968 120.987 206.39 120.787C206.886 120.555 207.002 120.281 207.097 119.078C207.497 114.037 211.347 110.219 216.42 109.818C217.464 109.734 217.759 109.628 217.981 109.249C218.276 108.743 218.213 108.215 217.802 107.804C217.454 107.456 217.422 107.445 216.62 107.456C216.156 107.466 215.386 107.53 214.901 107.614Z" fill="#FE8E4E"/>
<path d="M193.681 118.931C193.428 119.194 193.375 119.332 193.375 119.753C193.375 120.196 193.428 120.323 193.702 120.587C194.018 120.893 194.029 120.893 195.453 120.924C197.003 120.966 197.351 120.893 197.699 120.439C198.068 119.975 197.889 119.005 197.393 118.73C197.277 118.678 196.486 118.625 195.59 118.625H193.987L193.681 118.931Z" fill="#FE8E4E"/>
<path d="M236.586 118.741C236.1 119.026 235.942 119.986 236.301 120.439C236.649 120.893 236.997 120.966 238.547 120.924C239.971 120.893 239.982 120.893 240.298 120.587C240.572 120.323 240.625 120.196 240.625 119.753C240.625 119.332 240.572 119.194 240.319 118.931L240.013 118.625H238.389C237.493 118.625 236.691 118.678 236.586 118.741Z" fill="#FE8E4E"/>
<path d="M202.182 132.969C202.066 133.011 201.507 133.528 200.948 134.108C199.935 135.131 199.914 135.163 199.914 135.648C199.914 136.059 199.967 136.207 200.22 136.46C200.484 136.723 200.61 136.766 201.074 136.766H201.623L202.667 135.732C203.3 135.11 203.721 134.593 203.774 134.403C204.006 133.443 203.068 132.589 202.182 132.969Z" fill="#FE8E4E"/>
<path d="M230.542 133.222C230.268 133.496 230.184 133.665 230.184 133.971C230.184 134.509 230.3 134.698 231.228 135.637C232.114 136.555 232.441 136.766 232.926 136.766C233.643 136.766 234.086 136.291 234.086 135.532C234.086 135.173 233.98 135.036 232.947 134.002C231.85 132.905 231.787 132.863 231.354 132.863C230.975 132.863 230.838 132.927 230.542 133.222Z" fill="#FE8E4E"/>
<defs>
<radialGradient id="paint0_radial_1_518" cx="0" cy="0" r="1" gradientUnits="userSpaceOnUse" gradientTransform="translate(217 121) rotate(90) scale(59.1923)">
<stop offset="0.805135" stop-color="#FFE2A0"/>
<stop offset="1" stop-color="white" stop-opacity="0"/>
</radialGradient>
</defs>
</svg>
