<svg width="28" height="28" viewBox="0 0 28 28" fill="none" xmlns="http://www.w3.org/2000/svg">
<g clip-path="url(#clip0_1_161)">
<path d="M12.2224 0.0820026C9.65757 0.432003 7.38257 1.3781 5.35914 2.94216C4.71929 3.43982 3.63101 4.51169 3.10054 5.16794C1.59117 7.03825 0.590386 9.24763 0.163824 11.6539C0.0106988 12.507 -0.0494575 14.5578 0.04898 15.4929C0.284136 17.675 1.04429 19.8133 2.22554 21.6289C2.76148 22.4492 3.23179 23.0343 3.9646 23.7836C6.25601 26.1351 9.14898 27.557 12.4412 27.9398C13.174 28.0273 14.9568 28.0109 15.7498 27.9179C19.8404 27.4094 23.4935 25.1179 25.774 21.6289C26.9552 19.8187 27.7154 17.675 27.9451 15.4929C28.0435 14.5906 27.9888 12.5672 27.8412 11.725C27.3107 8.62966 25.9271 6.02107 23.6685 3.85544C21.6232 1.88669 19.0255 0.601534 16.1599 0.131222C15.4052 0.01091 12.9771 -0.0219021 12.2224 0.0820026ZM15.8044 1.55857C19.381 2.09997 22.5419 4.12341 24.5107 7.13669C25.5115 8.65701 26.1623 10.3851 26.4521 12.25C26.5834 13.1195 26.5834 14.8859 26.4466 15.75C26.0146 18.5445 24.8279 20.8961 22.8591 22.8593C20.8904 24.8336 18.5443 26.0148 15.7443 26.4523C14.8857 26.5836 13.1193 26.5836 12.2498 26.4523C9.4607 26.0203 7.10914 24.839 5.13492 22.8648C3.1607 20.8906 1.97945 18.539 1.54742 15.75C1.41617 14.8804 1.41617 13.114 1.55289 12.25C2.05054 9.02341 3.62554 6.25622 6.12476 4.21091C7.16382 3.35778 8.6732 2.53747 10.0349 2.08904C11.0794 1.73903 11.8287 1.58591 13.0974 1.45466C13.5349 1.41091 15.2466 1.47653 15.8044 1.55857Z" fill="#999999"/>
<path d="M11.6153 8.42184C11.4458 8.48747 11.2216 8.78278 11.1833 8.99059C11.1067 9.3734 11.1724 9.43903 13.8192 11.7523C15.1974 12.9609 16.3239 13.9726 16.3239 14C16.3239 14.0273 15.1974 15.039 13.8192 16.2476C11.938 17.8882 11.2927 18.4898 11.2271 18.632C11.0083 19.1625 11.506 19.7312 12.0802 19.6054C12.2005 19.5781 13.1302 18.8015 15.1099 17.0679C16.6794 15.6953 18.0247 14.4976 18.0903 14.4156C18.2544 14.2023 18.2544 13.7976 18.0903 13.5898C17.8989 13.3492 12.3153 8.47653 12.1622 8.42184C11.9982 8.35622 11.7739 8.35622 11.6153 8.42184Z" fill="#999999"/>
</g>
<defs>
<clipPath id="clip0_1_161">
<rect width="28" height="28" fill="white"/>
</clipPath>
</defs>
</svg>
